<?xml version="1.0" encoding="UTF-8"?>
<svg xmlns="http://www.w3.org/2000/svg" xmlns:xlink="http://www.w3.org/1999/xlink" width="10px" height="10px" viewBox="0 0 10 10" version="1.1">
<g id="surface1">
<path style=" stroke:none;fill-rule:nonzero;fill:rgb(0%,0%,0%);fill-opacity:1;" d="M 2.578125 1.050781 C 1.566406 1.585938 0.792969 2.835938 0.792969 3.96875 C 0.792969 6.230469 3.175781 7.878906 5.335938 7.121094 C 5.972656 6.90625 6.011719 6.925781 7.164062 8.054688 L 8.332031 9.207031 L 9.207031 8.332031 L 8.074219 7.183594 L 6.925781 6.03125 L 7.242188 5.296875 C 7.660156 4.285156 7.617188 3.371094 7.082031 2.382812 C 6.546875 1.367188 5.296875 0.59375 4.167969 0.59375 C 3.769531 0.59375 3.054688 0.792969 2.578125 1.050781 Z M 5.734375 1.945312 C 6.886719 2.796875 7.003906 4.722656 5.972656 5.773438 C 4.464844 7.261719 1.925781 6.367188 1.667969 4.246094 C 1.390625 2.0625 3.949219 0.613281 5.734375 1.945312 Z M 5.734375 1.945312 "/>
</g>
</svg>
