<?xml version="1.0" standalone="no"?>
<!DOCTYPE svg PUBLIC "-//W3C//DTD SVG 20010904//EN"
 "http://www.w3.org/TR/2001/REC-SVG-20010904/DTD/svg10.dtd">
<svg version="1.0" xmlns="http://www.w3.org/2000/svg"
 width="50.000000pt" height="50.000000pt" viewBox="0 0 50.000000 50.000000"
 preserveAspectRatio="xMidYMid meet">

<g transform="translate(0.000000,50.000000) scale(0.100000,-0.100000)"
fill="#000000" stroke="none">
<path d="M218 479 c-10 -5 -18 -17 -18 -24 0 -10 -10 -15 -30 -15 -16 0 -30 5
-30 10 0 6 -18 10 -40 10 -33 0 -46 -6 -70 -32 l-29 -33 -1 -166 c0 -224 -19
-209 251 -209 267 0 249 -16 249 211 0 160 -1 166 -23 187 -13 12 -35 22 -50
22 -17 0 -27 5 -27 15 0 8 -9 19 -19 25 -25 13 -141 13 -163 -1z m161 -107
c58 -43 64 -140 12 -193 -76 -75 -204 -30 -217 77 -14 110 115 183 205 116z
m-293 7 c10 -17 -13 -36 -27 -22 -12 12 -4 33 11 33 5 0 12 -5 16 -11z"/>
<path d="M248 364 c-30 -16 -58 -61 -58 -94 0 -53 57 -110 110 -110 53 0 110
57 110 110 0 34 -28 78 -60 95 -36 19 -67 19 -102 -1z"/>
</g>
</svg>
